<?xml version="1.0" encoding="utf-8"?>
<!-- Svg Vector Icons : http://www.onlinewebfonts.com/icon -->
<!DOCTYPE svg PUBLIC "-//W3C//DTD SVG 1.1//EN" "http://www.w3.org/Graphics/SVG/1.1/DTD/svg11.dtd">
<svg version="1.1" xmlns="http://www.w3.org/2000/svg" xmlns:xlink="http://www.w3.org/1999/xlink" x="0px" y="0px" viewBox="0 0 1000 1000" enable-background="new 0 0 1000 1000" xml:space="preserve">
<metadata> Svg Vector Icons : http://www.onlinewebfonts.com/icon </metadata>
<g><g transform="translate(0.000000,512.000000) scale(0.100000,-0.100000)"><path d="M1872.6,4999.9C970.3,4869.6,248,4139.7,121.6,3231.6c-28.7-206.9-28.7-6023.4,0-6230.3c63.2-454.1,283.5-889,609.2-1201.2c264.4-252.9,576.7-427.2,934.9-526.9l187.7-51.7H5005h3151.6l191.6,53.6c229.9,63.2,565.2,224.2,739.5,356.4c155.2,118.8,352.5,323.8,457.9,482.8c116.9,170.5,243.3,448.3,302.7,662.9l51.7,187.7V116.4V3268l-51.7,187.7c-166.7,605.4-547.9,1074.8-1099.7,1350.7c-178.2,90-419.6,164.8-628.4,193.5C7938.2,5024.8,2047,5024.8,1872.6,4999.9z M6210.1,2221.9c174.3-40.2,425.3-149.4,570.9-249.1c132.2-90,341-295,438.7-431.1c109.2-153.3,228-402.3,279.7-592c57.5-212.7,61.3-641.8,7.6-852.6C7336.6-569.5,6817.4-1073.3,6145-1218.9c-203.1-46-555.6-40.2-762.5,9.6c-93.9,23-172.4,42.1-178.2,42.1c-3.8,0-7.7-197.3-7.7-440.6v-440.6H5007h-191.6l-5.8,695.4l-5.7,693.5l-61.3,126.4c-109.2,224.2-331.4,390.8-580.5,438.7c-55.6,9.6-385.1,19.2-733.8,19.2h-632.2L3162-446.9c203.1-205,367.8-381.2,367.8-388.9c0-9.6-61.3-76.6-136-149.4l-134.1-134.1l-335.3,344.8c-183.9,189.7-450.2,467.5-593.9,616.9l-260.6,274l344.8,358.3c189.7,199.2,461.7,475.1,601.6,615l254.8,252.9l134.1-134.1l132.2-134.1l-55.6-61.3c-30.7-34.5-199.2-206.9-373.6-383.2L2792.2,308h615h615l11.5,254.8c7.7,193.5,21.1,293.1,59.4,421.5c178.2,599.7,620.7,1048,1193.6,1210.8C5612.4,2287.1,5895.9,2296.6,6210.1,2221.9z"/><path d="M5466.8,1840.7c-235.7-57.5-448.3-178.2-626.5-354.4c-262.5-260.6-388.9-534.5-406.2-885.1c-3.8-105.4-1.9-233.7,3.8-281.6c13.4-84.3,17.2-88.1,151.4-159c285.5-147.5,538.4-475.1,592-772.1c23-115,26.8-120.7,101.5-153.3c264.4-113,659.1-126.5,938.8-30.7c613.1,208.8,1013.5,843,929.2,1469.5c-46,335.3-155.2,555.6-402.3,802.7c-187.8,189.7-383.2,302.7-624.6,364C5936.1,1888.6,5662.2,1888.6,5466.8,1840.7z M5982.1,1103.1V710.3h392.7h392.8V509.2V308h-584.3h-584.3v593.9v593.9h191.6h191.6V1103.1z"/></g></g>
</svg>